HIERARCHY
ROOT Root
{
  OFFSET 0.0 0.0 0.0
  CHANNELS 6 Xposition Yposition Zposition Zrotation Yrotation Xrotation
  JOINT Hips
  {
    OFFSET 0.0 100.0 0.0
    CHANNELS 6 Xposition Yposition Zposition Zrotation Yrotation Xrotation
    JOINT Spine1
    {
      OFFSET -0.013727 5.003763 -0.053727
      CHANNELS 3 Zrotation Yrotation Xrotation
      JOINT Spine2
      {
        OFFSET -0.0 7.125301 -0.029825
        CHANNELS 3 Zrotation Yrotation Xrotation
        JOINT Chest
        {
          OFFSET -1e-06 7.550063 -0.815971
          CHANNELS 3 Zrotation Yrotation Xrotation
          JOINT Neck1
          {
            OFFSET -0.181677 26.311295 -0.553348
            CHANNELS 3 Zrotation Yrotation Xrotation
            JOINT Neck2
            {
              OFFSET -3e-06 7.709397 2.302585
              CHANNELS 3 Zrotation Yrotation Xrotation
              JOINT Head
              {
                OFFSET -5e-06 6.128916 1.953709
                CHANNELS 3 Zrotation Yrotation Xrotation
                JOINT HeadEnd
                {
                  OFFSET 0.003598 16.065403 -1.835379
                  CHANNELS 3 Zrotation Yrotation Xrotation
                }
                JOINT Jaw
                {
                  OFFSET 0.002637 0.475592 3.094941
                  CHANNELS 3 Zrotation Yrotation Xrotation
                }
                JOINT LeftEye
                {
                  OFFSET 3.206381 5.380205 7.586883
                  CHANNELS 3 Zrotation Yrotation Xrotation
                }
                JOINT RightEye
                {
                  OFFSET -3.22244 5.361869 7.558234
                  CHANNELS 3 Zrotation Yrotation Xrotation
                }
              }
            }
          }
          JOINT LeftShoulder
          {
            OFFSET 1.621652 23.237164 5.113413
            CHANNELS 3 Zrotation Yrotation Xrotation
            JOINT LeftArm
            {
              OFFSET 14.919846 2e-06 -5.502326
              CHANNELS 3 Zrotation Yrotation Xrotation
              JOINT LeftForeArm
              {
                OFFSET 28.739307 0.0 -0.002588
                CHANNELS 3 Zrotation Yrotation Xrotation
                JOINT LeftHand
                {
                  OFFSET 27.093981 -1e-06 0.002609
                  CHANNELS 3 Zrotation Yrotation Xrotation
                  JOINT LeftHandThumb1
                  {
                    OFFSET 2.276482 -1.392045 3.191413
                    CHANNELS 3 Zrotation Yrotation Xrotation
                    JOINT LeftHandThumb2
                    {
                      OFFSET 4.012836 -1.828127 1.641654
                      CHANNELS 3 Zrotation Yrotation Xrotation
                      JOINT LeftHandThumb3
                      {
                        OFFSET 2.798515 0.0 -3e-06
                        CHANNELS 3 Zrotation Yrotation Xrotation
                        JOINT LeftHandThumbEnd
                        {
                          OFFSET 3.180793 -4e-06 4e-06
                          CHANNELS 3 Zrotation Yrotation Xrotation
                        }
                      }
                    }
                  }
                  JOINT LeftHandIndex1
                  {
                    OFFSET 3.247555 -0.531998 2.296169
                    CHANNELS 3 Zrotation Yrotation Xrotation
                    JOINT LeftHandIndex2
                    {
                      OFFSET 6.364578 0.01206 0.1786
                      CHANNELS 3 Zrotation Yrotation Xrotation
                      JOINT LeftHandIndex3
                      {
                        OFFSET 3.662364 0.0 0.0
                        CHANNELS 3 Zrotation Yrotation Xrotation
                        JOINT LeftHandIndex4
                        {
                          OFFSET 2.329242 4e-06 4e-06
                          CHANNELS 3 Zrotation Yrotation Xrotation
                          JOINT LeftHandIndexEnd
                          {
                            OFFSET 2.759615 -0.180537 -0.113024
                            CHANNELS 3 Zrotation Yrotation Xrotation
                          }
                        }
                      }
                    }
                  }
                  JOINT LeftHandMiddle1
                  {
                    OFFSET 3.163495 0.240981 1.000332
                    CHANNELS 3 Zrotation Yrotation Xrotation
                    JOINT LeftHandMiddle2
                    {
                      OFFSET 6.19078 -0.259278 -1.002548
                      CHANNELS 3 Zrotation Yrotation Xrotation
                      JOINT LeftHandMiddle3
                      {
                        OFFSET 4.35652 -4e-06 -1e-06
                        CHANNELS 3 Zrotation Yrotation Xrotation
                        JOINT LeftHandMiddle4
                        {
                          OFFSET 2.996877 -8e-06 0.0
                          CHANNELS 3 Zrotation Yrotation Xrotation
                          JOINT LeftHandMiddleEnd
                          {
                            OFFSET 2.304287 -0.294569 -0.031741
                            CHANNELS 3 Zrotation Yrotation Xrotation
                          }
                        }
                      }
                    }
                  }
                  JOINT LeftHandRing1
                  {
                    OFFSET 2.882643 -0.053652 -0.322543
                    CHANNELS 3 Zrotation Yrotation Xrotation
                    JOINT LeftHandRing2
                    {
                      OFFSET 5.854541 -0.486202 -1.373841
                      CHANNELS 3 Zrotation Yrotation Xrotation
                      JOINT LeftHandRing3
                      {
                        OFFSET 4.350578 0.0 3e-06
                        CHANNELS 3 Zrotation Yrotation Xrotation
                        JOINT LeftHandRing4
                        {
                          OFFSET 2.651321 7e-06 2e-06
                          CHANNELS 3 Zrotation Yrotation Xrotation
                          JOINT LeftHandRingEnd
                          {
                            OFFSET 1.936105 0.077687 -7.1e-05
                            CHANNELS 3 Zrotation Yrotation Xrotation
                          }
                        }
                      }
                    }
                  }
                  JOINT LeftHandPinky1
                  {
                    OFFSET 2.8655 -0.310005 -1.600378
                    CHANNELS 3 Zrotation Yrotation Xrotation
                    JOINT LeftHandPinky2
                    {
                      OFFSET 5.087849 -1.331141 -1.77123
                      CHANNELS 3 Zrotation Yrotation Xrotation
                      JOINT LeftHandPinky3
                      {
                        OFFSET 3.070974 4e-06 0.0
                        CHANNELS 3 Zrotation Yrotation Xrotation
                        JOINT LeftHandPinky4
                        {
                          OFFSET 1.549672 0.0 1e-06
                          CHANNELS 3 Zrotation Yrotation Xrotation
                          JOINT LeftHandPinkyEnd
                          {
                            OFFSET 1.944893 -0.157802 0.057219
                            CHANNELS 3 Zrotation Yrotation Xrotation
                          }
                        }
                      }
                    }
                  }
                }
              }
            }
          }
          JOINT RightShoulder
          {
            OFFSET -1.380118 23.180309 5.214158
            CHANNELS 3 Zrotation Yrotation Xrotation
            JOINT RightArm
            {
              OFFSET -15.037196 1.2e-05 -5.545604
              CHANNELS 3 Zrotation Yrotation Xrotation
              JOINT RightForeArm
              {
                OFFSET -28.736639 2e-06 -0.002597
                CHANNELS 3 Zrotation Yrotation Xrotation
                JOINT RightHand
                {
                  OFFSET -27.133619 -0.0 0.002613
                  CHANNELS 3 Zrotation Yrotation Xrotation
                  JOINT RightHandThumb1
                  {
                    OFFSET -2.274032 -1.383988 3.163127
                    CHANNELS 3 Zrotation Yrotation Xrotation
                    JOINT RightHandThumb2
                    {
                      OFFSET -4.011429 -1.827466 1.640914
                      CHANNELS 3 Zrotation Yrotation Xrotation
                      JOINT RightHandThumb3
                      {
                        OFFSET -2.794935 -4e-06 -3e-06
                        CHANNELS 3 Zrotation Yrotation Xrotation
                        JOINT RightHandThumbEnd
                        {
                          OFFSET -3.183852 4e-06 1e-06
                          CHANNELS 3 Zrotation Yrotation Xrotation
                        }
                      }
                    }
                  }
                  JOINT RightHandIndex1
                  {
                    OFFSET -3.253266 -0.520057 2.282866
                    CHANNELS 3 Zrotation Yrotation Xrotation
                    JOINT RightHandIndex2
                    {
                      OFFSET -6.341917 0.012471 0.178266
                      CHANNELS 3 Zrotation Yrotation Xrotation
                      JOINT RightHandIndex3
                      {
                        OFFSET -3.654871 -8e-06 -0.0
                        CHANNELS 3 Zrotation Yrotation Xrotation
                        JOINT RightHandIndex4
                        {
                          OFFSET -2.327586 0.0 1e-06
                          CHANNELS 3 Zrotation Yrotation Xrotation
                          JOINT RightHandIndexEnd
                          {
                            OFFSET -2.76179 -0.180656 -0.113078
                            CHANNELS 3 Zrotation Yrotation Xrotation
                          }
                        }
                      }
                    }
                  }
                  JOINT RightHandMiddle1
                  {
                    OFFSET -3.168106 0.246593 1.00103
                    CHANNELS 3 Zrotation Yrotation Xrotation
                    JOINT RightHandMiddle2
                    {
                      OFFSET -6.180828 -0.258836 -1.000895
                      CHANNELS 3 Zrotation Yrotation Xrotation
                      JOINT RightHandMiddle3
                      {
                        OFFSET -4.348901 0.0 -0.0
                        CHANNELS 3 Zrotation Yrotation Xrotation
                        JOINT RightHandMiddle4
                        {
                          OFFSET -3.00024 -4e-06 -2e-06
                          CHANNELS 3 Zrotation Yrotation Xrotation
                          JOINT RightHandMiddleEnd
                          {
                            OFFSET -2.30252 -0.29437 -0.031706
                            CHANNELS 3 Zrotation Yrotation Xrotation
                          }
                        }
                      }
                    }
                  }
                  JOINT RightHandRing1
                  {
                    OFFSET -2.88569 -0.067952 -0.308858
                    CHANNELS 3 Zrotation Yrotation Xrotation
                    JOINT RightHandRing2
                    {
                      OFFSET -5.854198 -0.48613 -1.373731
                      CHANNELS 3 Zrotation Yrotation Xrotation
                      JOINT RightHandRing3
                      {
                        OFFSET -4.33881 -4e-06 -0.0
                        CHANNELS 3 Zrotation Yrotation Xrotation
                        JOINT RightHandRing4
                        {
                          OFFSET -2.654903 -4e-06 4e-06
                          CHANNELS 3 Zrotation Yrotation Xrotation
                          JOINT RightHandRingEnd
                          {
                            OFFSET -1.933568 0.077527 -5.2e-05
                            CHANNELS 3 Zrotation Yrotation Xrotation
                          }
                        }
                      }
                    }
                  }
                  JOINT RightHandPinky1
                  {
                    OFFSET -2.866425 -0.342796 -1.584145
                    CHANNELS 3 Zrotation Yrotation Xrotation
                    JOINT RightHandPinky2
                    {
                      OFFSET -5.091371 -1.332055 -1.772385
                      CHANNELS 3 Zrotation Yrotation Xrotation
                      JOINT RightHandPinky3
                      {
                        OFFSET -3.062664 -4e-06 1e-06
                        CHANNELS 3 Zrotation Yrotation Xrotation
                        JOINT RightHandPinky4
                        {
                          OFFSET -1.546529 4e-06 -2e-06
                          CHANNELS 3 Zrotation Yrotation Xrotation
                          JOINT RightHandPinkyEnd
                          {
                            OFFSET -1.945119 -0.157718 0.057211
                            CHANNELS 3 Zrotation Yrotation Xrotation
                          }
                        }
                      }
                    }
                  }
                }
              }
            }
          }
        }
      }
    }
    JOINT LeftLeg
    {
      OFFSET 10.043214 -8.434526 2.595655
      CHANNELS 3 Zrotation Yrotation Xrotation
      JOINT LeftShin
      {
        OFFSET -1e-06 -43.221752 -0.802913
        CHANNELS 3 Zrotation Yrotation Xrotation
        JOINT LeftFoot
        {
          OFFSET 1e-06 -42.155094 -3.481523
          CHANNELS 3 Zrotation Yrotation Xrotation
          JOINT LeftToeBase
          {
            OFFSET 0.0 -5.059472 13.231529
            CHANNELS 3 Zrotation Yrotation Xrotation
            JOINT LeftToeEnd
            {
              OFFSET -0.009607 -1.647619 6.513017
              CHANNELS 3 Zrotation Yrotation Xrotation
            }
          }
        }
      }
    }
    JOINT RightLeg
    {
      OFFSET -10.047278 -8.29526 2.620317
      CHANNELS 3 Zrotation Yrotation Xrotation
      JOINT RightShin
      {
        OFFSET 1e-06 -43.362206 -0.805556
        CHANNELS 3 Zrotation Yrotation Xrotation
        JOINT RightFoot
        {
          OFFSET 2e-06 -42.117393 -3.478398
          CHANNELS 3 Zrotation Yrotation Xrotation
          JOINT RightToeBase
          {
            OFFSET -0.0 -5.079609 13.284196
            CHANNELS 3 Zrotation Yrotation Xrotation
            JOINT RightToeEnd
            {
              OFFSET 0.009532 -1.634378 6.460591
              CHANNELS 3 Zrotation Yrotation Xrotation
            }
          }
        }
      }
    }
  }
}
MOTION
Frames: 4
Frame Time: 0.03333333333333333
0.0 0.0 0.0 0.0 -0.0 0.0 -1.52112 100.820778 -3.871203 -1.860623 15.895701 7.210584 0.383087 -0.225021 8.004262 -0.188053 -0.290593 -1.67623 0.11952 -1.954682 12.723188 -0.456669 3.204766 -14.854458 -1.041927 -0.098043 -3.499675 0.284763 -1.862336 -31.446503 7.7e-05 -2.3e-05 7e-06 0.051781 0.105335 0.152133 0.526819 -3.65222 -10.425537 -0.426084 3.878933 -10.524508 11.378215 -15.220177 6.152805 -56.075027 -31.263132 17.298338 174.574738 -82.373985 -172.792221 -14.307713 5.945932 -1.440184 -5.882099 9.861279 0.702588 -10.936865 -0.360577 7.156201 1e-06 8.774822 -1e-06 -16.317665 17.497662 5.22912 -1.84403 2.498505 -2.507277 -10.163593 4.678941 4.621106 -20.976009 -5e-06 1e-06 -21.226271 2.451694 -3.593999 1e-06 -5e-06 -1e-06 -1.362681 2.240797 -0.746323 -21.3349 0.584909 3.008322 -13.821204 -3e-06 2e-06 -23.88715 -0.249081 -0.839483 -60.22036 2.719138 -1.195744 -0.294026 1.679687 0.833255 -14.218202 0.093213 1.300578 -34.212032 -0.287565 0.96717 -20.033203 0.964534 1.212843 -1e-06 0.0 -0.0 -3.440385 0.788234 0.501654 -15.928176 -3.167309 2.999704 -6.33882 0.0 0.0 -18.123436 3.64818 -4.905669 -4e-06 -2e-06 -2e-06 -0.932867 22.543293 6.238879 17.996485 11.475525 -18.777418 -179.715515 74.364037 -179.24791 9.865464 10.385557 -7.151874 2.24354 -5.255034 -3.180159 14.282885 -0.826592 6.952501 -2e-06 -12.6906 -1e-06 15.409961 -18.699976 3.265913 1.665666 -1.95592 -2.878297 4.727798 -4.170585 4.99392 11.020522 3e-06 0.0 12.10905 -3.735714 -2.866782 1e-06 -0.0 -2e-06 1.291985 -1.928548 -1.49809 14.800123 0.56747 3.865609 14.242564 -1.341735 -6.660654 19.631956 0.143926 -0.648243 51.574615 -1.266077 -6.186572 0.353028 -1.51115 -0.031939 20.222784 3.68431 2.316631 18.787266 5e-06 2e-06 10.751622 -0.479868 1.397908 0.0 0.0 0.0 3.273805 0.305947 -0.58011 21.486807 11.830368 2.266134 8.162924 2e-06 1e-06 18.399075 -3.798983 -4.940569 5e-06 -1e-06 -0.0 4.229087 -3.807514 -18.036327 0.06362 -0.267393 12.216228 -2.038099 5.939825 -0.418746 1.620028 -1.994381 2.238017 0.0 -0.0 2e-06 0.754256 -10.910365 -8.814196 0.0688 -0.066373 3.26374 3.081156 -19.220709 -1.565326 -1.482136 0.873214 1.527346 0.0 -0.0 -1e-06 
0.0 0.0 0.0 0.0 -0.0 0.0 -1.762403 100.765099 -4.557655 -1.988102 17.624453 8.655009 0.847361 -0.096781 8.544408 -0.048951 0.089164 -1.486681 0.290807 -1.634119 13.066119 -0.363913 3.327479 -14.498129 -1.598583 -1.746107 -3.53213 0.710697 -3.972147 -32.00293 7.7e-05 -2.3e-05 8e-06 0.055449 0.122763 0.150564 0.541134 -3.617511 -10.38724 -0.4324 3.877702 -10.506145 10.497481 -13.885705 6.872069 -58.980015 -30.093699 17.332308 175.189301 -85.471474 -173.250381 -13.569631 8.614796 -1.704935 -5.882099 9.861275 0.702587 -10.936858 -0.360576 7.156196 1e-06 8.774815 -3e-06 -16.670799 17.412262 5.075405 -1.844029 2.498503 -2.507274 -10.163586 4.678936 4.621102 -20.975994 -5e-06 2e-06 -21.226254 2.451693 -3.593995 2e-06 -5e-06 -0.0 -1.362681 2.240797 -0.746322 -21.334887 0.584907 3.00832 -13.821195 -5e-06 3e-06 -23.887136 -0.249082 -0.83948 -59.9258 2.734035 -1.334771 -0.294026 1.679684 0.833253 -14.21819 0.09321 1.300578 -34.212002 -0.287566 0.967171 -20.033188 0.964535 1.212842 0.0 2e-06 0.0 -3.440384 0.788232 0.501656 -15.928167 -3.167307 2.999705 -6.338819 -1e-06 1e-06 -18.123425 3.648179 -4.905665 -4e-06 -0.0 -2e-06 -1.65529 23.968069 6.445264 14.662518 12.629296 -18.745581 -172.121918 86.64579 -171.553497 10.465316 8.790623 -4.542521 2.243537 -5.255027 -3.180153 14.282871 -0.826592 6.952491 -2e-06 -12.690589 -2e-06 15.539202 -18.794668 3.278486 1.665663 -1.955919 -2.878297 4.727789 -4.17058 4.993917 11.020509 3e-06 -1e-06 12.109036 -3.73571 -2.866778 0.0 1e-06 0.0 1.291983 -1.928548 -1.498088 14.800108 0.567466 3.8656 14.242555 -1.341735 -6.66065 19.631941 0.143926 -0.648244 51.190647 -1.357285 -6.264727 0.353029 -1.511149 -0.031939 20.222765 3.684309 2.316627 18.787249 6e-06 0.0 10.751615 -0.479866 1.397904 -0.0 -1e-06 2e-06 3.273804 0.305947 -0.580111 21.486786 11.830364 2.26613 8.162915 3e-06 -1e-06 18.399057 -3.798979 -4.940569 2e-06 -0.0 -2e-06 4.744925 -5.20599 -20.779028 0.096632 -0.249997 12.892643 -1.967078 5.505496 0.058759 1.619633 -1.995442 2.059795 0.0 -1e-06 2e-06 1.296298 -10.721988 -11.296136 0.04015 -0.112231 4.430921 3.013865 -20.81246 -1.81158 -1.496863 0.881961 1.260372 0.0 0.0 -1e-06 
0.0 0.0 0.0 0.0 -0.0 0.0 -2.096745 100.658546 -5.243132 -1.895664 19.674887 10.018777 1.329907 0.049046 9.148719 0.057675 0.599125 -1.276448 0.446994 -1.294472 13.45539 -0.049645 3.414377 -14.000854 -2.230286 -3.806549 -3.538154 1.383356 -6.454504 -32.369629 7.7e-05 -2.2e-05 6e-06 0.060719 0.139973 0.149248 0.559591 -3.575509 -10.341007 -0.43991 3.868345 -10.480827 9.31147 -12.521065 7.681046 -60.908916 -28.675285 16.391382 -179.849594 -87.346199 -178.432098 -12.817138 11.31028 -3.162555 -5.882102 9.861275 0.70259 -10.936858 -0.360575 7.156197 1e-06 8.774815 -3e-06 -16.77384 17.479832 5.08787 -1.844032 2.498502 -2.507273 -10.163588 4.678938 4.621104 -20.976 -2e-06 5e-06 -21.226259 2.451697 -3.593995 0.0 -6e-06 0.0 -1.362678 2.240796 -0.746324 -21.334888 0.584908 3.008321 -13.821198 -1e-06 3e-06 -23.887142 -0.249077 -0.839481 -59.306286 2.664508 -1.453158 -0.294025 1.679684 0.833254 -14.21819 0.093214 1.300579 -34.212002 -0.287562 0.967169 -20.033188 0.964537 1.212842 0.0 0.0 0.0 -3.440386 0.788231 0.501656 -15.928168 -3.167304 2.999705 -6.33882 -1e-06 2e-06 -18.123426 3.64818 -4.905664 -3e-06 -0.0 -2e-06 -2.741281 25.557871 6.482253 11.858641 14.155824 -18.535187 -0.29891 77.664963 0.082384 10.853162 6.877993 -3.456161 2.243539 -5.255032 -3.180154 14.282872 -0.82659 6.952492 -2e-06 -12.69059 -3e-06 15.840876 -18.844992 3.182554 1.665663 -1.955918 -2.878297 4.727791 -4.17058 4.993917 11.020512 4e-06 -2e-06 12.109034 -3.735709 -2.86678 -0.0 -1e-06 1e-06 1.291986 -1.928548 -1.498088 14.800108 0.567469 3.865603 14.242554 -1.341734 -6.660649 19.631941 0.143926 -0.648244 50.991123 -1.36563 -6.367152 0.353028 -1.51115 -0.031941 20.222763 3.684311 2.316628 18.787249 6e-06 0.0 10.75161 -0.479866 1.397906 -2e-06 1e-06 -1e-06 3.273802 0.305947 -0.58011 21.486786 11.830362 2.266131 8.162915 2e-06 2e-06 18.399054 -3.798982 -4.940567 3e-06 -1e-06 -1e-06 5.201279 -6.879571 -23.451176 0.142784 -0.239081 13.515125 -1.911204 5.005282 0.686678 1.622684 -2.016679 1.912725 0.0 -0.0 2e-06 1.661295 -10.819609 -14.018426 0.004332 -0.142779 6.414373 3.0532 -22.537941 -2.538842 -1.505559 0.920659 1.015249 -0.0 -0.0 -1e-06 
0.0 0.0 0.0 0.0 -0.0 0.0 -2.533966 100.481941 -5.883967 -1.529642 21.995443 11.283945 1.804223 0.201641 9.848789 0.148591 1.208792 -0.998537 0.574194 -0.817053 13.888139 0.476861 3.416912 -13.419281 -2.885083 -6.213137 -3.532047 2.312618 -9.189554 -32.600998 7.7e-05 -2.3e-05 5e-06 0.061892 0.153881 0.144528 0.561921 -3.533234 -10.307858 -0.439967 3.851239 -10.462368 8.055741 -11.132783 8.568095 -61.582016 -27.0839 15.393963 -172.372864 -87.862381 173.595612 -13.004091 13.298283 -5.714514 -5.882102 9.861281 0.702591 -10.936865 -0.360573 7.1562 -0.0 8.774821 -0.0 -16.742525 17.710033 5.180312 -1.84403 2.498505 -2.507278 -10.163595 4.678942 4.621108 -20.976017 -3e-06 2e-06 -21.22628 2.451696 -3.593999 -0.0 -7e-06 1e-06 -1.36268 2.240796 -0.746322 -21.334902 0.584912 3.008321 -13.821207 -2e-06 0.0 -23.887161 -0.249079 -0.839484 -58.938705 2.589911 -1.443322 -0.294024 1.679688 0.833254 -14.218203 0.093212 1.30058 -34.212036 -0.287564 0.96717 -20.033205 0.964535 1.212843 1e-06 -0.0 1e-06 -3.440385 0.788233 0.501655 -15.928177 -3.167308 2.999705 -6.338822 -3e-06 1e-06 -18.123438 3.648181 -4.905668 -4e-06 0.0 -3e-06 -4.219593 27.397135 6.250027 9.936517 15.706548 -17.40027 2.862625 59.352459 2.317461 12.354699 4.238004 -3.098975 2.24354 -5.255033 -3.180156 14.282884 -0.826594 6.952501 -3e-06 -12.690597 2e-06 16.171198 -18.829281 2.900554 1.665667 -1.955921 -2.878298 4.727797 -4.170584 4.993923 11.02052 3e-06 -1e-06 12.109046 -3.735715 -2.866782 0.0 -1e-06 0.0 1.291986 -1.928548 -1.498088 14.800118 0.567467 3.865607 14.242564 -1.341733 -6.660654 19.631956 0.143926 -0.648244 51.13588 -1.244309 -6.466299 0.353028 -1.51115 -0.03194 20.222782 3.684308 2.31663 18.787266 4e-06 1e-06 10.751624 -0.479868 1.397905 -0.0 -0.0 1e-06 3.273806 0.305947 -0.580111 21.486807 11.830368 2.266131 8.162924 0.0 1e-06 18.399076 -3.798982 -4.940571 2e-06 0.0 -1e-06 5.524256 -8.707403 -26.047701 0.191553 -0.237466 14.263223 -1.933751 4.351675 1.297598 1.623353 -2.048409 1.827985 0.0 -0.0 2e-06 1.830729 -11.355453 -16.993891 -0.033707 -0.153905 9.399936 3.224249 -24.115807 -3.82868 -1.507311 0.961456 0.877009 -0.0 0.0 -1e-06 
